<svg width="529" height="174" viewBox="0 0 529 174" fill="none" xmlns="http://www.w3.org/2000/svg">
<path d="M504.359 102.598L506.852 100.87L500.522 93.94L498.029 95.6685L504.359 102.598Z" fill="#C0ED81"/>
<path d="M388.197 85.5448L387.609 80.7881L382.874 80.8711L383.462 85.6279L388.197 85.5448Z" fill="#C0ED81"/>
<path d="M263.478 130.835L263.203 127.59L255.746 126.231L256.02 129.476L263.478 130.835Z" fill="#C0ED81"/>
<path d="M467.585 40.7134L465.953 35.2998L453.876 33.943L455.507 39.3566L467.585 40.7134Z" fill="#3CEE5C"/>
<path d="M140.469 56.7831L137.828 52.4927L125.326 60.7293L127.967 65.0197L140.469 56.7831Z" fill="#C0ED81"/>
<path d="M76.1619 24.1619L74.8828 20.4893L71.1843 22.1244L72.4635 25.7971L76.1619 24.1619Z" fill="#20523C"/>
<path d="M485.857 86.439L489.336 85.7554L488.589 81.8476L485.11 82.5312L485.857 86.439Z" fill="#C0ED81"/>
<path d="M306.559 98.1331L310.875 98.8271L311.044 89.2666L306.728 88.5726L306.559 98.1331Z" fill="#C0ED81"/>
<path d="M490.01 35.5463L487.312 33.9028L483.479 40.3991L486.177 42.0427L490.01 35.5463Z" fill="#3CEE5C"/>
<path d="M36.298 27.833L31 26.7549L31.6823 36.5092L36.9803 37.5873L36.298 27.833Z" fill="#C0ED81"/>
<path d="M418.643 79.5587L414.883 78.281L414.503 87.1572L418.263 88.435L418.643 79.5587Z" fill="#C0ED81"/>
<path d="M134.2 139.566L136.953 135.9L132.248 131.917L129.495 135.583L134.2 139.566Z" fill="#C0ED81"/>
<path d="M301.495 26.707L296.516 26.2583L302.4 12.0574L307.38 12.5061L301.495 26.707Z" fill="#C0ED81"/>
<path d="M498.869 63.1327L501.117 58.9702L491.192 51.9657L488.945 56.1282L498.869 63.1327Z" fill="#3CEE5C"/>
<path d="M227.349 141.391L224.047 136.521L219.044 137.119L222.346 141.988L227.349 141.391Z" fill="#20523C"/>
<path d="M99.1932 123.847L95.2812 123.218L95.0562 127.189L98.9682 127.817L99.1932 123.847Z" fill="#C0ED81"/>
<path d="M144.704 67.0309L148.586 67.1016L148.019 62.2452L144.138 62.1746L144.704 67.0309Z" fill="#C0ED81"/>
<path d="M484.054 94.5513L484.773 89.417L472.228 88.3112L471.509 93.4455L484.054 94.5513Z" fill="#C0ED81"/>
<path d="M84.0242 40.3162L86.4531 38.0142L79.586 31.745L77.1571 34.047L84.0242 40.3162Z" fill="#C0ED81"/>
<path d="M107.723 50.3384L108.156 47.6162L102.29 46.4823L101.857 49.2045L107.723 50.3384Z" fill="#3CEE5C"/>
<path d="M238.528 104.223L242.117 102.421L234.226 92.7577L230.637 94.5597L238.528 104.223Z" fill="#3CEE5C"/>
<path d="M232.885 107.146L231.781 104.007L223.037 105.275L224.141 108.414L232.885 107.146Z" fill="#C0ED81"/>
<path d="M506.886 140.219L510.617 136.214L505.644 131.723L501.912 135.728L506.886 140.219Z" fill="#20523C"/>
<path d="M483.357 103.268L486.281 101.988L480.752 95.2947L477.828 96.5741L483.357 103.268Z" fill="#C0ED81"/>
<path d="M157.527 49.1753L153.953 47.5151L152.685 54.0318L156.258 55.6921L157.527 49.1753Z" fill="#20523C"/>
<path d="M26.1082 155.498L27.7891 152.21L22.5423 149.884L20.8615 153.172L26.1082 155.498Z" fill="#20523C"/>
<path d="M150.338 75.0541L149.656 71.6597L139.918 74.9063L140.6 78.3007L150.338 75.0541Z" fill="#20523C"/>
<path d="M298.567 8.96357L294.156 6.50732L289.842 16.0458L294.253 18.502L298.567 8.96357Z" fill="#3CEE5C"/>
<path d="M461.561 118.433L457.375 117.747L455.083 126.021L459.27 126.707L461.561 118.433Z" fill="#3CEE5C"/>
<path d="M5.98723 131.451L3.07812 130.472L0.00306029 137.627L2.91217 138.606L5.98723 131.451Z" fill="#C0ED81"/>
<path d="M185.783 11.6368L186.5 6.60156L177.069 4.62573L176.351 9.66092L185.783 11.6368Z" fill="#20523C"/>
<path d="M345.206 77.2979L341.43 74.7744L338.812 80.9112L342.589 83.4346L345.206 77.2979Z" fill="#C0ED81"/>
<path d="M259.019 1.99491L258.578 -1.4126L249.8 1.13397L250.241 4.54148L259.019 1.99491Z" fill="#3CEE5C"/>
<path d="M479.757 9.38881L475.508 6.25684L472.046 13.0383L476.295 16.1702L479.757 9.38881Z" fill="#C0ED81"/>
<path d="M379.935 106.146L376.609 102.818L373.034 106.5L376.36 109.827L379.935 106.146Z" fill="#3CEE5C"/>
<path d="M461.203 105.965L460.445 102.722L455.323 105.006L456.082 108.249L461.203 105.965Z" fill="#C0ED81"/>
<path d="M405.132 35.4939L401.242 34.3984L400.273 39.3648L404.163 40.4603L405.132 35.4939Z" fill="#3CEE5C"/>
<path d="M85.5162 36.9827L89.1328 35.207L84.7142 28.3182L81.0976 30.0939L85.5162 36.9827Z" fill="#20523C"/>
<path d="M519.927 9.36431L518.375 5.73535L510.902 6.44087L512.454 10.0698L519.927 9.36431Z" fill="#3CEE5C"/>
<path d="M405.87 166.631L408.891 162.57L400.112 155.486L397.091 159.547L405.87 166.631Z" fill="#C0ED81"/>
<path d="M447.442 6.87113L445.156 3.33936L440.182 6.9685L442.468 10.5003L447.442 6.87113Z" fill="#C0ED81"/>
<path d="M364.531 135.842L369.141 134.693L367.225 127.01L362.615 128.159L364.531 135.842Z" fill="#20523C"/>
<path d="M352.352 117.813L354.242 115.819L348.74 110.594L346.849 112.587L352.352 117.813Z" fill="#3CEE5C"/>
<path d="M9.5575 51.6465L14.1719 53.1992L14.9819 41.6504L10.3675 40.0977L9.5575 51.6465Z" fill="#20523C"/>
<path d="M442.234 139.27L444.516 136.226L431.421 125.118L429.139 128.162L442.234 139.27Z" fill="#20523C"/>
<path d="M149.046 110.872L152.031 109.269L149.994 104.061L147.009 105.665L149.046 110.872Z" fill="#20523C"/>
<path d="M323.424 135.363L327.5 131.285L318.076 122.216L314 126.294L323.424 135.363Z" fill="#20523C"/>
<path d="M114.925 13.5591L117.805 11.1396L114.084 6.64467L111.205 9.0641L114.925 13.5591Z" fill="#20523C"/>
<path d="M62.7447 36.5941L59.1094 32.2373L54.3597 34.8237L57.995 39.1805L62.7447 36.5941Z" fill="#C0ED81"/>
<path d="M43.564 169.381L41.4219 166.005L35.8044 169.591L37.9465 172.967L43.564 169.381Z" fill="#C0ED81"/>
<path d="M314.377 126.301L312.328 124.312L309.741 127.154L311.79 129.144L314.377 126.301Z" fill="#3CEE5C"/>
<path d="M496.858 20.7365L494.516 16.9429L488.448 19.1616L490.79 22.9553L496.858 20.7365Z" fill="#20523C"/>
<path d="M21.9036 93.5305L25.9062 93.8789L24.2189 85.1167L20.2162 84.7683L21.9036 93.5305Z" fill="#C0ED81"/>
<path d="M80.2796 139.481L80.8672 136.874L74.9079 133.436L74.3203 136.043L80.2796 139.481Z" fill="#C0ED81"/>
<path d="M249.413 58.4971L252.742 57.7471L250.212 50.6895L246.883 51.4395L249.413 58.4971Z" fill="#3CEE5C"/>
<path d="M275.368 111.108L279.727 110.085L275.289 96.4536L270.93 97.4763L275.368 111.108Z" fill="#20523C"/>
<path d="M139.49 19.8057L137.883 17.1699L135.586 18.1817L137.192 20.8174L139.49 19.8057Z" fill="#3CEE5C"/>
<path d="M219.102 66.3177L223.484 64.4668L219.115 54.6872L214.733 56.5382L219.102 66.3177Z" fill="#20523C"/>
<path d="M471.898 166.903L474.047 166.027L467.88 158.328L465.731 159.204L471.898 166.903Z" fill="#20523C"/>
<path d="M419.147 77.3753L418.461 73.2319L410.986 75.8368L411.672 79.9802L419.147 77.3753Z" fill="#20523C"/>
<path d="M231.634 148.789L229.25 144.741L220.823 145.555L223.207 149.603L231.634 148.789Z" fill="#C0ED81"/>
<path d="M337.533 143.729L332.531 142.565L333.748 151.122L338.749 152.286L337.533 143.729Z" fill="#C0ED81"/>
<path d="M352.515 36.8989L355.156 34.3604L350.96 29.8474L348.319 32.386L352.515 36.8989Z" fill="#C0ED81"/>
<path d="M71.8564 128.126L76.9531 127.587L75.8498 119.708L70.7531 120.246L71.8564 128.126Z" fill="#C0ED81"/>
<path d="M160.933 145.037L165.289 144.047L164.984 139.762L160.629 140.752L160.933 145.037Z" fill="#20523C"/>
<path d="M528.998 67.8894L528.688 64.3306L519.612 64.8072L519.923 68.366L528.998 67.8894Z" fill="#20523C"/>
<path d="M419.526 92.7365L419.383 89.9922L412.928 88.8862L413.071 91.6305L419.526 92.7365Z" fill="#3CEE5C"/>
<path d="M379.392 55.0961L382.984 52.4307L376.588 45.2648L372.995 47.9302L379.392 55.0961Z" fill="#20523C"/>
<path d="M182.274 142.42L186.43 140.933L179.839 128.353L175.684 129.839L182.274 142.42Z" fill="#C0ED81"/>
<path d="M177.179 118.972L179.766 117.562L176.821 112.865L174.234 114.275L177.179 118.972Z" fill="#20523C"/>
<path d="M478.072 55.2287L475.328 53.9424L474.075 59.352L476.819 60.6383L478.072 55.2287Z" fill="#3CEE5C"/>
<path d="M91.8192 114.81L88.5234 113.936L88.5467 117.747L91.8425 118.621L91.8192 114.81Z" fill="#C0ED81"/>
<path d="M48.9473 139.917L48.8984 137.149L42.947 136.838L42.9959 139.606L48.9473 139.917Z" fill="#3CEE5C"/>
<path d="M488.859 132.679L491.398 130.59L488.405 126.943L485.865 129.032L488.859 132.679Z" fill="#C0ED81"/>
<path d="M218.703 75.6197L217.828 72.4741L210.583 73.6574L211.457 76.8029L218.703 75.6197Z" fill="#3CEE5C"/>
<path d="M154.914 107.881L151.516 106.522L151.388 110.53L154.786 111.889L154.914 107.881Z" fill="#3CEE5C"/>
<path d="M469.333 132.497L466.719 128.19L459.01 132.039L461.624 136.346L469.333 132.497Z" fill="#3CEE5C"/>
<path d="M488.342 16.2732L489.438 12.4087L482.328 10.3033L481.232 14.1678L488.342 16.2732Z" fill="#C0ED81"/>
<path d="M69.5827 62.8384L66.2344 60.8467L63.9324 66.6398L67.2808 68.6316L69.5827 62.8384Z" fill="#20523C"/>
<path d="M448.619 132.746L451.172 129.391L442.87 122.738L440.318 126.092L448.619 132.746Z" fill="#C0ED81"/>
<path d="M228.712 27.9553L230.984 23.8369L224.895 19.6293L222.622 23.7476L228.712 27.9553Z" fill="#C0ED81"/>
<path d="M69.8898 18.3259L66.9844 13.3013L55.1533 18.7908L58.0587 23.8153L69.8898 18.3259Z" fill="#C0ED81"/>
<path d="M367.063 86.3947L368.719 84.0278L361.032 77.9773L359.376 80.3442L367.063 86.3947Z" fill="#C0ED81"/>
<path d="M9.51678 39.5677L12.9688 37.5806L9.53238 31.3853L6.08041 33.3725L9.51678 39.5677Z" fill="#20523C"/>
<path d="M418.045 24.7458L419.25 22.4087L412.453 18.2891L411.248 20.6262L418.045 24.7458Z" fill="#C0ED81"/>
<path d="M185.707 48.4948L187.945 45.0293L183.205 41.5833L180.967 45.0488L185.707 48.4948Z" fill="#3CEE5C"/>
<path d="M394.442 25.5472L392.508 21L384.39 25.0917L386.324 29.6389L394.442 25.5472Z" fill="#20523C"/>
<path d="M75.0494 134.069L76.6406 130.557L70.0857 129.064L68.4945 132.576L75.0494 134.069Z" fill="#20523C"/>
<path d="M298.255 82.7986L295.516 81.2739L292.791 84.9068L295.531 86.4315L298.255 82.7986Z" fill="#3CEE5C"/>
<path d="M379.016 91.7939L380.391 89.4053L378.001 87.97L376.626 90.3587L379.016 91.7939Z" fill="#20523C"/>
<path d="M141.244 143.736L145.906 144.609L144.861 135.537L140.198 134.664L141.244 143.736Z" fill="#3CEE5C"/>
<path d="M373.9 71.1044L371.203 70.291L370.136 74.8517L372.832 75.6651L373.9 71.1044Z" fill="#C0ED81"/>
<path d="M122.745 18.432L125.227 15.54L120.691 11.3511L118.209 14.243L122.745 18.432Z" fill="#20523C"/>
<path d="M432.796 10.8584L430.438 7.45752L427.295 8.90803L429.653 12.3089L432.796 10.8584Z" fill="#C0ED81"/>
<path d="M91.5237 86.4329L93.5391 85.1221L88.8103 79.4869L86.7949 80.7978L91.5237 86.4329Z" fill="#20523C"/>
<path d="M176.407 167.736L173.727 164.443L166.807 169.977L169.487 173.27L176.407 167.736Z" fill="#C0ED81"/>
<path d="M310.139 46.3741L312.969 46.7207L311.698 42.6877L308.868 42.3411L310.139 46.3741Z" fill="#20523C"/>
</svg>
