<svg width="24" height="24" viewBox="0 0 24 24" fill="none" xmlns="http://www.w3.org/2000/svg">
<g clip-path="url(#clip0_1203_39322)">
<path d="M12 2.25C6.61509 2.25 2.25 6.61509 2.25 12C2.25 17.3849 6.61509 21.75 12 21.75C12.1383 21.75 12.2754 21.7465 12.4124 21.7408V14.6238H10.9416V12.1711H12.4124V10.6988C12.4124 8.6977 13.2411 7.50681 15.5982 7.50681H17.5607V9.96111H16.3344C15.4166 9.96111 15.3554 10.3033 15.3554 10.9431L15.3523 12.1711H17.5745L17.3148 14.6238H15.3523V21.159C19.0857 19.792 21.75 16.207 21.75 12C21.75 6.61509 17.3849 2.25 12 2.25Z" fill="#3B5998"/>
<path d="M15.5941 7.50769C13.237 7.50769 12.4082 8.69858 12.4082 10.6997V12.1719H10.9375V14.6247H12.4082V21.7417C13.4373 21.6988 14.4256 21.4976 15.3482 21.1598V14.6247H17.3107L17.5704 12.1719H15.3482L15.3513 10.944C15.3513 10.3042 15.4125 9.96199 16.3302 9.96199H17.5566V7.50769H15.5941Z" fill="white"/>
</g>
<defs>
<clipPath id="clip0_1203_39322">
<rect width="19.5" height="19.5" fill="white" transform="translate(2.25 2.25)"/>
</clipPath>
</defs>
</svg>
