<svg width="190" height="42" viewBox="0 0 190 42" fill="none" xmlns="http://www.w3.org/2000/svg">
<path d="M47.8281 29.2873V12.3497H59.3936V15.419H51.4063V19.2612H58.9319V22.3304H51.4063V26.2181H59.3936V29.2873H47.8281Z" fill="#212223"/>
<path d="M59.454 29.2873L63.8632 23.0579L59.431 16.874H63.4477L66.7719 21.6938H65.0175L68.3417 16.874H72.3585L67.9262 23.0579L72.3123 29.2873H68.3186L65.0637 24.4675H66.7258L63.4708 29.2873H59.454Z" fill="#212223"/>
<path d="M78.8972 29.5602C77.6353 29.5602 76.4964 29.2798 75.4807 28.719C74.4803 28.143 73.6801 27.3624 73.0799 26.3772C72.4951 25.3921 72.2026 24.2856 72.2026 23.0579C72.2026 21.8302 72.4951 20.7314 73.0799 19.7613C73.6647 18.7762 74.465 18.0032 75.4807 17.4424C76.4964 16.8816 77.6353 16.6012 78.8972 16.6012C79.836 16.6012 80.7056 16.7603 81.5058 17.0786C82.3061 17.3969 82.991 17.844 83.5604 18.42C84.1298 18.9808 84.5376 19.6477 84.7839 20.4207L81.7828 21.6938C81.5674 21.0724 81.198 20.5798 80.6748 20.2161C80.1669 19.8523 79.5744 19.6704 78.8972 19.6704C78.297 19.6704 77.7584 19.8144 77.2813 20.1024C76.8196 20.3904 76.4503 20.792 76.1732 21.3073C75.9116 21.8227 75.7808 22.4138 75.7808 23.0807C75.7808 23.7476 75.9116 24.3387 76.1732 24.854C76.4503 25.3693 76.8196 25.771 77.2813 26.059C77.7584 26.3469 78.297 26.4909 78.8972 26.4909C79.5898 26.4909 80.19 26.309 80.6979 25.9453C81.2057 25.5815 81.5674 25.0889 81.7828 24.4675L84.7839 25.7634C84.553 26.4909 84.1529 27.1427 83.5835 27.7186C83.014 28.2946 82.3292 28.7493 81.5289 29.0827C80.7286 29.401 79.8514 29.5602 78.8972 29.5602Z" fill="#212223"/>
<path d="M86.1015 29.2873V12.0769H89.5642V19.3294L89.1487 18.7837C89.4411 18.0411 89.9105 17.4954 90.5569 17.1468C91.2187 16.7831 91.9882 16.6012 92.8654 16.6012C93.8195 16.6012 94.6506 16.7982 95.3585 17.1923C96.0819 17.5864 96.6436 18.1396 97.0437 18.8519C97.4439 19.5492 97.6439 20.3676 97.6439 21.3073V29.2873H94.1812V22.0349C94.1812 21.5498 94.0812 21.133 93.8811 20.7844C93.6964 20.4358 93.4271 20.163 93.0731 19.966C92.7346 19.7689 92.3344 19.6704 91.8727 19.6704C91.4264 19.6704 91.0263 19.7689 90.6723 19.966C90.3183 20.163 90.0413 20.4358 89.8413 20.7844C89.6566 21.133 89.5642 21.5498 89.5642 22.0349V29.2873H86.1015Z" fill="#212223"/>
<path d="M103.101 29.5602C102.193 29.5602 101.408 29.4162 100.746 29.1282C100.084 28.8402 99.5765 28.431 99.2225 27.9005C98.8686 27.3549 98.6916 26.7107 98.6916 25.968C98.6916 25.2708 98.8532 24.657 99.1764 24.1265C99.4996 23.5808 99.992 23.1261 100.654 22.7624C101.331 22.3986 102.17 22.141 103.17 21.9894L107.025 21.3755V23.8764L103.793 24.4448C103.301 24.5357 102.924 24.6949 102.662 24.9222C102.401 25.1344 102.27 25.4451 102.27 25.8543C102.27 26.2333 102.416 26.5288 102.708 26.741C103.001 26.9532 103.362 27.0593 103.793 27.0593C104.363 27.0593 104.863 26.938 105.294 26.6955C105.725 26.453 106.056 26.1272 106.286 25.7179C106.533 25.2935 106.656 24.8313 106.656 24.3311V21.1027C106.656 20.6329 106.463 20.2388 106.079 19.9205C105.709 19.6022 105.202 19.4431 104.555 19.4431C103.94 19.4431 103.393 19.6098 102.916 19.9432C102.454 20.2767 102.116 20.7162 101.9 21.2619L99.1302 19.966C99.3764 19.2688 99.7689 18.6701 100.308 18.1699C100.846 17.6697 101.493 17.2832 102.247 17.0104C103.001 16.7376 103.824 16.6012 104.717 16.6012C105.779 16.6012 106.717 16.7906 107.533 17.1696C108.349 17.5485 108.98 18.079 109.426 18.761C109.888 19.4279 110.119 20.2085 110.119 21.1027V29.2873H106.887V27.2866L107.672 27.1502C107.302 27.6959 106.894 28.1506 106.448 28.5143C106.002 28.8629 105.502 29.1206 104.948 29.2873C104.394 29.4692 103.778 29.5602 103.101 29.5602Z" fill="#212223"/>
<path d="M111.937 29.2873V16.874H115.169V19.3294L114.984 18.7837C115.276 18.0411 115.746 17.4954 116.392 17.1468C117.054 16.7831 117.823 16.6012 118.701 16.6012C119.655 16.6012 120.486 16.7982 121.194 17.1923C121.917 17.5864 122.479 18.1396 122.879 18.8519C123.279 19.5492 123.479 20.3676 123.479 21.3073V29.2873H120.016V22.0349C120.016 21.5498 119.916 21.133 119.716 20.7844C119.532 20.4358 119.262 20.163 118.908 19.966C118.57 19.7689 118.17 19.6704 117.708 19.6704C117.262 19.6704 116.861 19.7689 116.507 19.966C116.154 20.163 115.877 20.4358 115.676 20.7844C115.492 21.133 115.399 21.5498 115.399 22.0349V29.2873H111.937Z" fill="#212223"/>
<path d="M133.553 29.5602C132.322 29.5602 131.175 29.3404 130.113 28.9008C129.051 28.4613 128.12 27.8474 127.32 27.0593C126.52 26.2712 125.896 25.3466 125.45 24.2856C125.004 23.2247 124.781 22.0652 124.781 20.8072C124.781 19.5492 124.996 18.3897 125.427 17.3287C125.858 16.2526 126.466 15.328 127.251 14.555C128.036 13.7669 128.951 13.1606 129.998 12.7362C131.06 12.2967 132.214 12.0769 133.461 12.0769C134.707 12.0769 135.823 12.2815 136.808 12.6908C137.808 13.1 138.655 13.6456 139.347 14.3277C140.04 15.0097 140.532 15.7676 140.825 16.6012L137.662 18.1017C137.37 17.2832 136.854 16.6088 136.115 16.0783C135.392 15.5326 134.507 15.2598 133.461 15.2598C132.445 15.2598 131.552 15.4947 130.783 15.9646C130.013 16.4345 129.413 17.0862 128.982 17.9198C128.567 18.7383 128.359 19.7007 128.359 20.8072C128.359 21.9136 128.582 22.8836 129.028 23.7172C129.475 24.5509 130.083 25.2026 130.852 25.6725C131.637 26.1423 132.537 26.3772 133.553 26.3772C134.338 26.3772 135.069 26.2333 135.746 25.9453C136.439 25.6421 136.993 25.2102 137.408 24.6494C137.839 24.0886 138.054 23.4141 138.054 22.626V21.2164L139.693 22.5805H133.461V19.6249H141.633V21.421C141.633 22.8003 141.402 24.0052 140.94 25.0359C140.478 26.0514 139.855 26.9002 139.07 27.5822C138.301 28.2491 137.431 28.7493 136.462 29.0827C135.507 29.401 134.538 29.5602 133.553 29.5602Z" fill="#212223"/>
<path d="M149.123 29.5602C147.876 29.5602 146.737 29.2798 145.706 28.719C144.69 28.1582 143.875 27.3927 143.259 26.4227C142.659 25.4375 142.359 24.3235 142.359 23.0807C142.359 21.8227 142.659 20.7086 143.259 19.7386C143.875 18.7686 144.69 18.0032 145.706 17.4424C146.737 16.8816 147.876 16.6012 149.123 16.6012C150.369 16.6012 151.5 16.8816 152.516 17.4424C153.532 18.0032 154.34 18.7686 154.94 19.7386C155.556 20.7086 155.864 21.8227 155.864 23.0807C155.864 24.3235 155.556 25.4375 154.94 26.4227C154.34 27.3927 153.532 28.1582 152.516 28.719C151.5 29.2798 150.369 29.5602 149.123 29.5602ZM149.123 26.4909C149.754 26.4909 150.3 26.3469 150.762 26.059C151.239 25.771 151.608 25.3693 151.87 24.854C152.147 24.3387 152.285 23.7476 152.285 23.0807C152.285 22.4138 152.147 21.8302 151.87 21.3301C151.608 20.8147 151.239 20.4131 150.762 20.1251C150.3 19.822 149.754 19.6704 149.123 19.6704C148.492 19.6704 147.938 19.822 147.461 20.1251C146.984 20.4131 146.606 20.8147 146.329 21.3301C146.068 21.8302 145.937 22.4138 145.937 23.0807C145.937 23.7476 146.068 24.3387 146.329 24.854C146.606 25.3693 146.984 25.771 147.461 26.059C147.938 26.3469 148.492 26.4909 149.123 26.4909Z" fill="#212223"/>
<path d="M160.309 29.2873V26.5591L164.926 21.8757C165.834 20.9511 166.518 20.2236 166.98 19.6931C167.457 19.1475 167.78 18.6928 167.95 18.329C168.134 17.9653 168.227 17.6091 168.227 17.2605C168.227 16.6391 168.019 16.1541 167.603 15.8055C167.203 15.4417 166.695 15.2598 166.08 15.2598C165.449 15.2598 164.887 15.4417 164.395 15.8055C163.902 16.1541 163.54 16.6921 163.31 17.4196L160.193 16.4193C160.378 15.5402 160.763 14.7748 161.347 14.1231C161.932 13.4713 162.64 12.9711 163.471 12.6225C164.302 12.2588 165.172 12.0769 166.08 12.0769C167.219 12.0769 168.219 12.2739 169.081 12.668C169.943 13.0621 170.612 13.6153 171.089 14.3277C171.566 15.04 171.805 15.8737 171.805 16.8285C171.805 17.4348 171.697 18.0335 171.482 18.6246C171.266 19.2006 170.935 19.7917 170.489 20.3979C170.058 20.989 169.496 21.6332 168.804 22.3304L164.856 26.3318H171.966V29.2873H160.309Z" fill="#212223"/>
<path d="M180.501 29.2873V25.6497H172.883V22.6942L180.27 12.3497H184.079V22.6942H186.734V25.6497H184.079V29.2873H180.501ZM175.491 23.9673L174.822 22.6942H180.501V15.0779L181.401 15.3508L175.491 23.9673Z" fill="#212223"/>
<path d="M24.1798 0L23.6654 11.0975L0 8.75598L39.2496 24.0125L24.1798 0Z" fill="#3BEE5C"/>
<path d="M17.9475 41.0494L18.462 29.9518L38.707 26.4566L5.93973 23.5514L17.9475 41.0494Z" fill="#3BEE5C"/>
</svg>
