<svg width="21" height="21" viewBox="0 0 21 21" fill="none" xmlns="http://www.w3.org/2000/svg">
<path d="M18.5655 14.3957L15.9571 8.30406C15.0738 6.23739 13.4488 6.15406 12.3571 8.12073L10.7821 10.9624C9.98213 12.4041 8.49047 12.5291 7.45713 11.2374L7.2738 11.0041C6.1988 9.65406 4.68213 9.82073 3.90713 11.3624L2.4738 14.2374C1.46547 16.2374 2.9238 18.5957 5.15713 18.5957H15.7905C17.9571 18.5957 19.4155 16.3874 18.5655 14.3957Z" stroke="#BABABA" stroke-width="1.25" stroke-linecap="round" stroke-linejoin="round"/>
<path d="M6.30469 6.92969C7.6854 6.92969 8.80469 5.8104 8.80469 4.42969C8.80469 3.04898 7.6854 1.92969 6.30469 1.92969C4.92398 1.92969 3.80469 3.04898 3.80469 4.42969C3.80469 5.8104 4.92398 6.92969 6.30469 6.92969Z" stroke="#BABABA" stroke-width="1.25" stroke-linecap="round" stroke-linejoin="round"/>
</svg>
